<?xml version="1.0" encoding="utf-8"?>
<!-- Generator: Adobe Illustrator 24.0.0, SVG Export Plug-In . SVG Version: 6.00 Build 0)  -->
<svg version="1.1" id="Layer_1" xmlns="http://www.w3.org/2000/svg" xmlns:xlink="http://www.w3.org/1999/xlink" x="0px" y="0px"
	 viewBox="0 0 235.95 235.95" style="enable-background:new 0 0 235.95 235.95;" xml:space="preserve">
<style type="text/css">
	.st0{fill:#606161;}
	.st1{fill:#FFFFFF;}
</style>
<g>
	<g>
		<path class="st0" d="M117.97,235.95C52.92,235.95,0,183.03,0,117.97S52.92,0,117.97,0s117.97,52.92,117.97,117.97
			S183.03,235.95,117.97,235.95z M117.97,5.95C56.2,5.95,5.95,56.2,5.95,117.97S56.2,230,117.97,230S230,179.75,230,117.97
			S179.75,5.95,117.97,5.95z"/>
	</g>
	<path class="st0" d="M205.63,105.6v4.75c0,3.94-3.19,7.12-7.12,7.12h-2.37l-7.75,54.26c-1,7.02-7.02,12.23-14.11,12.23H65.99
		c-7.09,0-13.1-5.21-14.11-12.23l-7.75-54.26h-2.37c-3.94,0-7.12-3.19-7.12-7.12v-4.75c0-3.94,3.19-7.12,7.12-7.12h19.99l31.7-43.59
		c3.09-4.24,9.03-5.18,13.27-2.1c4.24,3.09,5.18,9.03,2.1,13.27L85.24,98.47h69.78l-23.57-32.41c-3.09-4.24-2.15-10.18,2.1-13.27
		c4.24-3.09,10.18-2.15,13.27,2.1l31.7,43.59h19.99C202.44,98.47,205.63,101.66,205.63,105.6z M127.25,157.85V124.6
		c0-3.94-3.19-7.12-7.12-7.12c-3.94,0-7.12,3.19-7.12,7.12v33.25c0,3.94,3.19,7.12,7.12,7.12
		C124.06,164.97,127.25,161.78,127.25,157.85z M160.5,157.85V124.6c0-3.94-3.19-7.12-7.12-7.12s-7.12,3.19-7.12,7.12v33.25
		c0,3.94,3.19,7.12,7.12,7.12S160.5,161.78,160.5,157.85z M94,157.85V124.6c0-3.94-3.19-7.12-7.12-7.12c-3.94,0-7.12,3.19-7.12,7.12
		v33.25c0,3.94,3.19,7.12,7.12,7.12C90.81,164.97,94,161.78,94,157.85z"/>
</g>
</svg>
