<?xml version="1.0" encoding="utf-8"?>
<!-- Generator: Adobe Illustrator 24.0.0, SVG Export Plug-In . SVG Version: 6.00 Build 0)  -->
<svg version="1.1" id="Layer_1" xmlns="http://www.w3.org/2000/svg" xmlns:xlink="http://www.w3.org/1999/xlink" x="0px" y="0px"
	 viewBox="0 0 235.95 235.95" style="enable-background:new 0 0 235.95 235.95;" xml:space="preserve">
<style type="text/css">
	.st0{fill:#606161;}
	.st1{fill:#FFFFFF;}
</style>
<g>
	<path class="st0" d="M43.64,171.16c0-8.83-0.03-17.67,0-26.5c0.05-12.12,8.82-20.89,20.91-20.93c7.53-0.02,15.05,0.01,22.58-0.02
		c1.16,0,2.75,0.39,2.93-1.37c0.19-1.77,1.04-3.92-1.01-5.17c-6.02-3.66-11.11-8.32-15.49-13.8c-0.77-0.96-1.8-1-2.89-1
		c-4.34,0-8.67,0.02-13.01-0.01c-3.76-0.03-5.13-1.43-5.17-5.24c-0.03-3.11-0.05-6.22,0.01-9.33c0.03-1.41-0.42-2.44-1.47-3.43
		C40,74,40.38,58.76,51.93,48.99c1.38-1.17,1.77-2.72,2.3-4.23c5.29-15.19,14.81-26.98,28.54-35.33
		c24.52-14.9,56.67-11.88,78.1,7.18c8.88,7.9,15.26,17.42,19.07,28.66c0.59,1.75,1.54,3.1,2.94,4.37
		c7.45,6.73,10.08,15.06,6.89,24.64c-3.07,9.23-9.91,14.37-19.51,15.69c-1.61,0.22-2.45,0.81-3.08,2.24
		c-5.01,11.3-12.89,20-23.79,25.87c-2.11,1.14-1.95,2.84-1.67,4.61c0.22,1.37,1.51,1.01,2.42,1.01c7.85,0.03,15.71,0.01,23.56,0.02
		c12.97,0.01,21.56,8.56,21.57,21.48c0.02,16.12-0.39,32.24,0.13,48.34c0.43,13.36-5.78,22.41-16.42,29.17
		c-10.42,6.62-22.08,9.73-34.13,11.61c-9.89,1.54-19.87,1.89-29.85,1.45c-14.7-0.65-29.18-2.57-42.73-8.78
		c-9.24-4.23-17.01-10.12-20.93-19.97c-1.22-3.08-1.71-6.3-1.71-9.6C43.64,188.67,43.64,179.91,43.64,171.16z M104.6,43.45
		c-0.99,1.04-1.13,2.29-1.58,3.39C97.41,60.67,87.3,68.83,72.47,70.87c-2.03,0.28-2.15,1.26-2.01,2.79
		c0.6,6.51,2.39,12.65,5.39,18.47c0.83,1.61,1.86,2.19,3.65,2.17c7.36-0.08,14.72-0.03,22.07-0.03c0.74,0,1.47-0.01,2.21,0
		c3.11,0.04,5.07,1.62,5.07,4.08c0,2.39-2,3.99-5.16,4c-5.64,0.03-11.28-0.01-16.92,0.03c-0.85,0.01-1.78-0.33-2.59,0.4
		c0.6,1.26,1.69,2.01,2.66,2.85c15.84,13.77,40.32,14.83,57.29,2.4c11.5-8.43,18.09-19.73,19.43-34.02c0.23-2.43-0.66-3.17-3-3.07
		c-4.34,0.18-8.65-0.33-12.94-1.01c-14.27-2.24-27.05-7.45-37.01-18.38C108.34,49.08,106.62,46.21,104.6,43.45z M98.35,130.11
		c0.01,0,0.02,0,0.03,0c0,1.96-0.06,3.93,0.01,5.88c0.33,8.82,7.3,16.14,15.9,16.73c9.5,0.66,17.35-5.37,18.85-14.53
		c0.76-4.63,0.2-9.3,0.35-13.95c0.05-1.57-0.69-1.71-2.02-1.34c-4.35,1.19-8.79,1.86-13.3,1.98c-5.94,0.17-11.75-0.71-17.37-2.57
		c-2.11-0.7-2.6-0.1-2.48,1.9C98.45,126.18,98.35,128.15,98.35,130.11z M117.26,8c-2.09,0.18-3.88,0.31-5.67,0.48
		c-17.45,1.63-31.31,9.63-41.75,23.62c-2.35,3.15-4.35,6.53-5.94,10.14c-0.26,0.59-0.93,1.34,0.14,1.86
		c1.54,0.74,4.65-0.2,5.55-1.73c1.92-3.25,4.1-6.32,6.63-9.11c24.83-27.38,68.69-23.13,87.8,8.48c0.25,0.42,0.47,0.86,0.74,1.27
		c1.37,2.04,3.63,1.44,5.11,0.92c1.6-0.57-0.03-2.1-0.49-2.97C158.34,19.79,140.69,9.09,117.26,8z M51.26,67.34
		c-0.01,5.96,4.21,11.83,9.78,13.69c1.72,0.58,2.44,0.39,2.05-1.69c-1.56-8.34-1.01-16.6,1.34-24.73c0.54-1.86,0.18-2.39-1.79-1.96
		C56,54.1,51.27,60.15,51.26,67.34z M182.72,67.26c0.03-7.34-4.71-13.29-11.56-14.67c-1.73-0.35-2.04,0.12-1.59,1.7
		c2.37,8.19,3.08,16.47,1.54,24.91c-0.43,2.38-0.02,2.58,2.27,1.72C179.03,78.79,182.69,73.43,182.72,67.26z M64.08,94.33
		c1.08-0.32,2.53,0.55,3.16-0.6c0.43-0.79-0.41-1.86-0.91-2.65c-1.19-1.83-3.29-1.24-4.89-1.18c-1.44,0.05-0.86,1.87-0.77,2.88
		C60.87,95.19,62.9,93.87,64.08,94.33z"/>
</g>
</svg>
