<?xml version="1.0" encoding="utf-8"?>
<!-- Generator: Adobe Illustrator 24.0.0, SVG Export Plug-In . SVG Version: 6.00 Build 0)  -->
<svg version="1.1" id="Layer_1" xmlns="http://www.w3.org/2000/svg" xmlns:xlink="http://www.w3.org/1999/xlink" x="0px" y="0px"
	 viewBox="0 0 235.95 235.95" style="enable-background:new 0 0 235.95 235.95;" xml:space="preserve">
<style type="text/css">
	.st0{fill:#606161;}
	.st1{fill:#FFFFFF;}
</style>
<g>
	<path class="st0" d="M138.83,104.49c11.52,11.52,11.52,30.19,0,41.71s-30.19,11.52-41.71,0s-11.52-30.19,0-41.71
		S127.31,92.97,138.83,104.49"/>
	<path class="st0" d="M206.45,44.24h-20.38l-14.75-29.49H64.61L49.87,44.25l-20.35,0.04C13.3,44.32,0.09,57.54,0.08,73.77L0,191.7
		c0,16.27,13.23,29.5,29.49,29.5h176.96c16.27,0,29.49-13.23,29.49-29.49V73.73C235.95,57.47,222.72,44.24,206.45,44.24z
		 M117.97,184.34c-32.53,0-58.99-26.46-58.99-58.99s26.46-58.99,58.99-58.99s58.99,26.46,58.99,58.99S150.5,184.34,117.97,184.34
		L117.97,184.34z"/>
</g>
</svg>
