<?xml version="1.0" encoding="utf-8"?>
<!-- Generator: Adobe Illustrator 24.0.0, SVG Export Plug-In . SVG Version: 6.00 Build 0)  -->
<svg version="1.1" id="Layer_1" xmlns="http://www.w3.org/2000/svg" xmlns:xlink="http://www.w3.org/1999/xlink" x="0px" y="0px"
	 viewBox="0 0 235.95 235.95" style="enable-background:new 0 0 235.95 235.95;" xml:space="preserve">
<style type="text/css">
	.st0{fill:#606161;}
	.st1{fill:#FFFFFF;}
</style>
<g>
	<g>
		<path class="st0" d="M53.63,65.89c0.86-1.33,2.08-1.72,3.64-1.72c31.7,0.03,63.4,0.02,95.11,0.02c2.76,0,3.67,0.9,3.67,3.67
			c0,27.88,0,55.77,0,83.65c0,2.78-1.09,3.92-3.85,3.92c-31.61,0.01-63.23,0-94.84,0.01c-1.6,0-2.84-0.57-3.73-1.9
			C53.63,124.33,53.63,95.11,53.63,65.89z M149.79,138.98c0.09-0.02,0.18-0.05,0.27-0.07c0-0.44,0-0.88,0-1.32
			c0-21.76,0-43.52,0-65.28c0-2.13,0-2.13-2.1-2.13c-28.77,0-57.55,0-86.32,0c-2.12,0-2.12,0-2.12,2.11c0,22.65,0,45.29,0.01,67.94
			c0,0.46-0.15,0.96,0.14,1.4c0.39-0.16,0.51-0.52,0.69-0.8c2.6-4.03,5.18-8.07,7.78-12.1c3.72-5.79,7.43-11.58,11.18-17.36
			c1.36-2.1,3.16-2.31,5.03-0.67c0.5,0.44,0.98,0.9,1.45,1.37c3.85,3.87,7.69,7.76,11.54,11.63c1.09,1.1,1.11,1.1,1.9-0.29
			c4.76-8.32,9.52-16.65,14.27-24.98c1.85-3.24,3.7-6.48,5.54-9.72c0.61-1.07,1.44-1.84,2.73-1.83c1.38,0.01,2.32,0.75,2.91,1.97
			c0.13,0.28,0.28,0.55,0.42,0.83c8,16,16,32.01,24,48.01C149.33,138.14,149.57,138.56,149.79,138.98z"/>
		<path class="st0" d="M161.48,124.52c0-8.79,0-17.57-0.01-26.36c0-1.01,0.13-1.95,0.82-2.73c1.06-1.19,2.65-1.27,4.33-0.15
			c5.73,3.81,11.45,7.63,17.17,11.44c1.59,1.06,3.19,2.09,4.76,3.18c1.76,1.22,2.09,2.75,1,4.61c-7.39,12.69-14.79,25.38-22.2,38.06
			c-0.95,1.63-2.14,2.23-3.58,1.88c-1.51-0.38-2.3-1.52-2.3-3.44C161.47,142.19,161.48,133.35,161.48,124.52z"/>
		<path class="st0" d="M135.56,160.72c5.64,0,11.27-0.01,16.91,0.01c1.44,0.01,2.81-0.19,4.15-0.76c1.52-0.64,2.73-0.38,3.65,0.64
			c0.92,1.03,1.06,2.26,0.23,3.69c-3.42,5.92-6.85,11.82-10.33,17.71c-1.12,1.9-2.65,2.26-4.65,1.16
			c-7.65-4.22-15.28-8.48-22.93-12.72c-2.25-1.25-4.5-2.49-6.75-3.74c-1.66-0.93-2.35-2.2-2-3.65c0.34-1.44,1.57-2.3,3.47-2.31
			C123.4,160.71,129.48,160.73,135.56,160.72C135.56,160.73,135.56,160.72,135.56,160.72z"/>
		<path class="st0" d="M70.59,89.82c0.01-7.89,6.48-14.39,14.29-14.35c7.91,0.03,14.4,6.56,14.38,14.45
			c-0.02,7.83-6.55,14.36-14.34,14.36C76.99,104.27,70.58,97.8,70.59,89.82z"/>
	</g>
	<g>
		<path class="st0" d="M117.97,235.95C52.92,235.95,0,183.03,0,117.97S52.92,0,117.97,0c65.05,0,117.97,52.92,117.97,117.97
			S183.02,235.95,117.97,235.95z M117.97,8.79C57.77,8.79,8.79,57.77,8.79,117.97s48.98,109.19,109.19,109.19
			s109.19-48.98,109.19-109.19S178.18,8.79,117.97,8.79z"/>
	</g>
</g>
</svg>
