<?xml version="1.0" encoding="utf-8"?>
<!-- Generator: Adobe Illustrator 24.0.0, SVG Export Plug-In . SVG Version: 6.00 Build 0)  -->
<svg version="1.1" id="Layer_1" xmlns="http://www.w3.org/2000/svg" xmlns:xlink="http://www.w3.org/1999/xlink" x="0px" y="0px"
	 viewBox="0 0 235.95 235.95" style="enable-background:new 0 0 235.95 235.95;" xml:space="preserve">
<style type="text/css">
	.st0{fill:#606161;}
	.st1{fill:#FFFFFF;}
</style>
<g>
	<path class="st0" d="M0,101.57c1.49-5.68,5.77-8.59,10.71-10.93c3.95-1.88,3.89-1.96,1.96-5.85c-1.23-2.46-2.77-4.81-3.11-7.62
		c-0.61-5.01,0.91-9.26,4.69-12.61c15.69-13.88,33.28-17.01,52.78-9.3c0.98,0.39,1.85,1.1,3.12,1.09
		c-0.34-4.07-0.81-8.07-0.35-12.13c2.02-17.74,10.84-30.85,26.71-39.02c5.33-2.74,11.15-1.52,15.49,2.67
		c1.6,1.55,3.18,3.11,4.72,4.72c0.82,0.86,1.48,0.84,2.3-0.01c1.54-1.61,3.12-3.18,4.72-4.72c4.41-4.24,10.3-5.36,15.7-2.58
		c14.3,7.36,22.89,19.08,25.96,34.84c1.04,5.36,0.94,10.77,0.06,16.53c4.6-2.04,8.92-3.81,13.54-4.61
		c16.67-2.86,31.13,1.61,43.28,13.33c4.36,4.21,5.23,10.23,2.64,15.69c-0.99,2.08-2.02,4.13-3.11,6.16
		c-0.56,1.05-0.36,1.66,0.71,2.18c2,0.97,3.96,2.02,5.92,3.07c5.64,3.01,8.33,8.49,7.28,14.81c-3.28,19.86-18.65,35.64-38.46,39.49
		c-0.67,0.13-1.36,0.16-2.07,0.78c2.98,3.16,5.73,6.44,7.8,10.2c8.38,15.21,8.88,30.65,1.16,46.25c-2.69,5.43-8.06,8.11-14.09,7.31
		c-1.9-0.25-3.8-0.52-5.68-0.88c-1.8-0.35-2.98-0.06-3.11,2.09c-0.07,1.22-0.49,2.41-0.58,3.63c-0.63,7.78-5.37,13.43-15.12,13.92
		c-20.5,1.02-36.11-7.18-46.62-24.9c-0.3-0.5-0.38-1.34-1.09-1.34c-0.71,0-0.79,0.84-1.09,1.34c-10.57,17.8-26.26,26.03-46.85,24.87
		c-9.07-0.51-13.45-4.79-14.88-13.88c-0.19-1.21-0.52-2.41-0.6-3.63c-0.13-2.14-1.3-2.39-3.11-2.11c-3.23,0.5-6.42,1.51-9.78,0.9
		c-4.63-0.85-7.98-3.33-10.12-7.51c-9.16-17.85-6.14-39.73,7.54-54.58c0.5-0.54,1.23-0.94,1.37-1.79c-0.87-0.83-2.02-0.64-3.03-0.9
		c-19.37-4.93-31.6-17.04-36.72-36.35c-0.2-0.74-0.4-1.48-0.61-2.21C0,105.87,0,103.72,0,101.57z M199.74,182.11
		c0.02-16.03-9.38-30.38-24.45-35.9c-12.88-4.72-26.07-8.6-39.11-12.87c-1-0.33-1.74-0.28-2.43,0.6c-0.69,0.89-0.27,1.55,0.25,2.26
		c3.29,4.53,6.6,9.05,9.86,13.6c0.7,0.98,1.41,1.37,2.7,1.1c2.45-0.53,4.88-0.13,7.23,0.73c6.54,2.39,10.32,9.53,8.67,16.38
		c-1.65,6.88-8.22,11.51-15.12,10.65c-9.85-1.22-15.29-10.98-11.14-20.03c0.47-1.03,0.8-1.86-0.01-2.94
		c-3.35-4.49-6.63-9.03-9.88-13.59c-0.79-1.11-1.6-1.36-2.93-0.95c-3.6,1.12-7.27,1.17-10.87,0.03c-1.54-0.49-2.4-0.1-3.28,1.14
		c-3.01,4.26-6.05,8.5-9.2,12.66c-1.02,1.34-1.09,2.38-0.38,3.92c2.4,5.19,1.83,10.22-1.73,14.69c-3.5,4.39-8.21,6-13.74,4.96
		c-7.45-1.4-12.4-8.83-11-16.38c1.35-7.28,8.49-12.43,15.78-11.24c1.36,0.22,2.15-0.1,2.91-1.17c3.21-4.49,6.47-8.95,9.72-13.42
		c0.55-0.75,1.14-1.44,0.36-2.45c-0.78-1-1.64-0.85-2.66-0.52c-12.61,4.13-25.3,8.01-37.82,12.39
		c-21.52,7.52-31.64,32.3-21.81,52.82c1.39,2.89,2.65,3.5,5.89,2.97c3.55-0.58,7.11-1.15,10.68-1.63c4.36-0.6,6.28,0.92,6.93,5.24
		c0.56,3.71,1.22,7.41,1.77,11.12c0.36,2.42,1.8,3.68,4.14,3.87c2.97,0.24,5.91,0.49,8.94,0.19c16.45-1.64,29.86-13.1,33.82-29.11
		c1.34-5.42,1.29-10.94,1.25-16.46c-0.01-1.41,0.08-2.78,1.06-3.9c1.4-1.59,3.16-2.18,5.19-1.5c2.11,0.71,3.26,2.25,3.27,4.51
		c0.02,4.83-0.11,9.67,0.67,14.46c3.1,19.2,20.88,34.08,41.8,31.94c4.51-0.46,5.44-1.28,6.07-5.84c0.49-3.49,0.99-6.98,1.68-10.44
		c0.64-3.25,2.76-4.65,6.01-4.19c3.79,0.55,7.58,1.13,11.36,1.74c3.24,0.53,4.5-0.07,5.87-3.01
		C198.49,193.36,199.86,187.9,199.74,182.11z M122.63,93.02c0,2.61-0.01,5.22,0.01,7.82c0.01,1.04-0.24,2.12,1.21,2.63
		c1.58,0.56,2.05-0.55,2.71-1.45c7.36-10.11,14.71-20.22,22.05-30.34c6.17-8.5,8.89-17.92,7.39-28.4
		c-1.83-12.78-8.48-22.3-19.69-28.65c-2.81-1.59-4.31-1.31-6.57,0.93c-2.51,2.48-4.99,4.99-7.49,7.48
		c-3.17,3.15-5.55,3.17-8.68,0.07c-2.56-2.54-5.09-5.11-7.66-7.64c-2.1-2.07-3.62-2.33-6.19-0.99c-1.35,0.71-2.69,1.49-3.93,2.38
		C78.33,29.25,74.02,52.64,86.2,70.25c7.5,10.85,15.44,21.39,23.19,32.08c0.6,0.82,1.1,1.61,2.41,1.18
		c1.28-0.42,1.31-1.29,1.31-2.34c-0.01-4.76-0.13-9.52,0.04-14.27c0.09-2.52-0.46-4.07-2.88-5.48c-5.74-3.37-7.92-10.36-5.67-16.46
		c2.3-6.22,8.34-9.94,14.85-9.15c6.21,0.75,11.05,5.3,12.21,11.45c1.09,5.79-1.77,11.82-7.14,14.71c-1.42,0.76-1.99,1.62-1.92,3.22
		C122.72,87.8,122.63,90.41,122.63,93.02z M188.06,60.99c-12.71,0.14-23.08,5.2-30.72,15.32c-7.86,10.4-15.39,21.05-23.04,31.6
		c-0.55,0.76-1.4,1.48-0.6,2.65c0.82,1.2,1.81,0.87,2.85,0.53c4.66-1.52,9.3-3.15,14-4.53c2.15-0.63,3.2-1.62,3.72-3.94
		c1.71-7.59,9.47-12.17,16.93-10.28c7.52,1.9,12.15,9.56,10.27,17.02c-2.61,10.4-15.38,14.17-23.19,6.81
		c-1.09-1.02-1.96-1.36-3.42-0.86c-5,1.72-10.05,3.28-15.08,4.92c-1.01,0.33-2.1,0.57-2.07,2.05c0.03,1.32,0.96,1.61,1.92,1.93
		c12.76,4.13,25.43,8.56,38.3,12.33c21.57,6.32,44.26-8.14,48.04-30.24c0.51-2.99-0.05-4.18-2.73-5.57
		c-3.41-1.76-6.86-3.42-10.24-5.23c-3.29-1.76-4.03-4.13-2.4-7.47c1.68-3.44,3.47-6.84,5.17-10.27c1.4-2.84,1.23-3.97-1.05-6.12
		C207.25,64.59,198.39,60.96,188.06,60.99z M47.54,61c-9.9-0.04-18.46,3.39-25.79,9.94c-3.2,2.86-3.33,3.78-1.43,7.56
		c1.55,3.08,3.14,6.15,4.67,9.24c1.83,3.7,1.1,6.01-2.58,7.94c-3.39,1.78-6.84,3.46-10.25,5.21c-2.09,1.07-2.89,2.71-2.48,5.11
		c3.75,22.46,26.78,37.05,48.49,30.45c12.68-3.86,25.24-8.13,37.85-12.23c0.95-0.31,1.93-0.55,1.99-1.88c0.07-1.46-0.97-1.76-2-2.1
		c-5.1-1.66-10.22-3.27-15.3-4.99c-1.29-0.44-2.06-0.15-2.99,0.81c-2.39,2.44-5.38,3.81-8.8,4.02c-7.78,0.48-14.22-4.99-15.09-12.74
		c-0.77-6.89,4.57-13.95,11.41-15.08c7.87-1.3,14.8,3.39,16.38,11.2c0.3,1.48,0.97,2.23,2.39,2.68c5.05,1.58,10.06,3.28,15.08,4.93
		c1.03,0.34,2.01,0.74,2.88-0.43c0.93-1.25-0.02-2.01-0.61-2.83c-7.56-10.43-15.02-20.94-22.75-31.25
		C70.88,66.28,60.44,61.11,47.54,61z M117.76,112.29c-5.48,0.05-9.91,4.54-9.88,10.03c0.02,5.47,4.52,9.95,9.99,9.95
		c5.56,0,10.07-4.58,9.99-10.17C127.78,116.63,123.26,112.25,117.76,112.29z M172.08,105.93c-0.02-2.49-1.89-4.29-4.4-4.22
		c-2.38,0.07-4.12,1.88-4.11,4.29c0.01,2.48,1.89,4.28,4.41,4.21C170.37,110.15,172.09,108.35,172.08,105.93z M87,160.6
		c-2.39,0-4.28,1.81-4.32,4.12c-0.04,2.34,2,4.4,4.34,4.39c2.35-0.01,4.38-2.09,4.32-4.42C91.29,162.38,89.4,160.6,87,160.6z
		 M63.64,105.87c-0.07,2.47,1.62,4.32,4,4.39c2.47,0.08,4.38-1.59,4.5-3.92c0.12-2.44-1.77-4.53-4.15-4.6
		C65.66,101.68,63.7,103.54,63.64,105.87z M144.62,164.68c-0.03,2.52,1.84,4.44,4.29,4.4c2.2-0.04,4.21-2.11,4.23-4.35
		c0.02-2.31-1.86-4.14-4.28-4.17C146.35,160.54,144.64,162.2,144.62,164.68z M121.98,69.72c-0.01-2.43-1.8-4.31-4.12-4.33
		c-2.32-0.02-4.47,2.13-4.41,4.42c0.06,2.31,1.98,4.09,4.39,4.09C120.38,73.89,121.99,72.27,121.98,69.72z"/>
	<path class="st0" d="M117.13,138.8c-0.02,1.54-1.22,2.71-2.75,2.67c-1.53-0.04-2.66-1.26-2.61-2.81c0.05-1.48,1.21-2.61,2.69-2.61
		C115.98,136.05,117.15,137.26,117.13,138.8z"/>
</g>
</svg>
