<?xml version="1.0" encoding="utf-8"?>
<!-- Generator: Adobe Illustrator 24.0.0, SVG Export Plug-In . SVG Version: 6.00 Build 0)  -->
<svg version="1.1" id="Layer_1" xmlns="http://www.w3.org/2000/svg" xmlns:xlink="http://www.w3.org/1999/xlink" x="0px" y="0px"
	 viewBox="0 0 125 125" style="enable-background:new 0 0 125 125;" xml:space="preserve">
<style type="text/css">
	.st0{fill:#606161;}
	.st1{fill:#FFFFFF;}
</style>
<path class="st0" d="M123.51,116.33L91.99,84.8c7.37-8.96,11.8-20.43,11.8-32.91C103.79,23.28,80.51,0,51.89,0S0,23.28,0,51.89
	s23.28,51.89,51.89,51.89c12.48,0,23.94-4.43,32.91-11.8l31.53,31.53c0.99,0.99,2.29,1.49,3.59,1.49c1.3,0,2.6-0.5,3.59-1.49
	C125.5,121.53,125.5,118.31,123.51,116.33z M51.89,93.63c-23.01,0-41.73-18.72-41.73-41.73s18.72-41.73,41.73-41.73
	s41.73,18.72,41.73,41.73S74.91,93.63,51.89,93.63z"/>
</svg>
