<?xml version="1.0" encoding="utf-8"?>
<!-- Generator: Adobe Illustrator 24.0.0, SVG Export Plug-In . SVG Version: 6.00 Build 0)  -->
<svg version="1.1" id="Layer_1" xmlns="http://www.w3.org/2000/svg" xmlns:xlink="http://www.w3.org/1999/xlink" x="0px" y="0px"
	 viewBox="0 0 235.95 235.95" style="enable-background:new 0 0 235.95 235.95;" xml:space="preserve">
<style type="text/css">
	.st0{fill:#606161;}
	.st1{fill:#FFFFFF;}
</style>
<g>
	<path class="st0" d="M60.76,156.27c-0.47-0.28-1.03-0.15-1.56-0.15c-10.78-0.01-21.55-0.01-32.33-0.01c-0.64,0-1.28,0.02-1.92-0.02
		c-2.01-0.11-3-1.95-1.94-3.64c0.46-0.73,1.08-1.29,1.98-1.51c0.84-0.2,1.68-0.24,2.54-0.24c13.12,0,26.24,0,39.36,0.02
		c0.93,0,1.75-0.17,2.54-0.67c2.09-1.33,4.3-2.42,6.6-3.34c0.19-0.08,0.39-0.14,0.54-0.42c-0.46-0.26-0.93-0.15-1.37-0.15
		c-8.09-0.01-16.19,0-24.28,0c-0.51,0-1.03,0.02-1.53-0.07c-1.88-0.35-2.66-2.22-1.59-3.81c0.74-1.1,1.77-1.58,3.15-1.58
		c8.31,0.04,16.61,0.02,24.92,0.02c1.11,0,2.22-0.03,3.32,0.01c0.7,0.02,1.21-0.14,1.54-0.83c0.5-1.02,1.43-1.42,2.52-1.44
		c1.32-0.02,2.64-0.01,3.96-0.01c16.23,0,32.46,0,48.68,0c0.38,0,0.77-0.03,1.15,0.02c1.13,0.14,1.52,0.92,0.9,1.89
		c-0.98,1.55-2.04,3.04-3.02,4.58c-2.41,3.79-4.43,7.77-5.6,12.13c-0.66,2.44-1.06,4.92-0.45,7.45c0.72,2.96,2.69,4.77,5.47,5.74
		c1.66,0.58,3.4,0.82,5.14,0.9c1.87,0.08,3.75,0.04,5.62,0.02c1.07-0.01,1.22-0.17,1.51-1.18c1.54-5.49,3.08-10.98,4.73-16.44
		c1.42-4.68,2.74-9.39,4.11-14.09c0.17-0.57,0.38-1.13,0.55-1.7c0.3-0.98,0.22-1.12-0.79-1.45c-1.09-0.36-2.21-0.64-3.28-1.05
		c-2.55-0.97-5.29-1.24-7.85-2.19c-0.54-0.2-1.1-0.37-1.62-0.54c-0.14,0.25-0.06,0.41,0,0.56c0.43,1.25-0.06,2.27-1.36,2.62
		c-1.15,0.31-2.34,0.49-3.54,0.48c-2.42-0.01-4.85,0.14-7.27-0.14c-0.97-0.11-1.96-0.07-2.94,0c-2.94,0.21-5.86,0.19-8.8,0
		c-1.95-0.13-3.91-0.12-5.87,0.08c-1.31,0.13-2.64,0.08-3.96,0.08c-4.6,0-9.19-0.04-13.79-0.04c-4.17,0-8.34,0.03-12.51,0.03
		c-1.25,0-2.45-0.2-3.48-1.02c-0.47-0.37-0.75-0.8-0.76-1.4c-0.02-1.66-0.09-3.32-0.03-4.98c0.04-1.13,1.07-2.14,2.24-2.3
		c0.71-0.1,1.47-0.18,2.16,0.06c1.38,0.48,2.78,0.07,4.17,0.19c0.69,0.06,1.46-0.33,2.24-0.3c0.85,0.03,1.7-0.03,2.51,0.33
		c0.32,0.14,0.67,0.1,1.01,0.05c1.48-0.2,2.97-0.15,4.46-0.03c0.3,0.03,0.59,0.09,0.89-0.01c1.58-0.52,3.16-0.47,4.76-0.04
		c0.43,0.12,0.92-0.04,1.39-0.04c1.19-0.01,2.38-0.05,3.57,0.07c0.25,0.03,0.54,0.08,0.75-0.01c1.03-0.43,2.1-0.31,3.16-0.31
		c2.85-0.01,5.7,0,8.71,0c-0.55-0.59-1.09-1.06-1.48-1.62c-0.41-0.59-0.71-1.26-1.03-1.91c-1.17-2.36-1.51-4.8-0.98-7.42
		c0.41-2.04,0.74-4.09,1.26-6.12c0.84-3.31,1.99-6.51,3.23-9.68c3.22-8.28,7.35-16.1,11.9-23.71c1.64-2.74,3.29-5.48,5.22-8.02
		c2.71-3.58,6.28-5.9,10.7-6.63c3.96-0.65,7.64,0.23,10.69,3.01c1.53,1.4,2.39,3.21,2.85,5.19c1.02,4.35,2,8.71,3.16,13.02
		c0.62,2.3,1.2,4.61,1.79,6.92c0.33,1.31,0.73,1.67,2.07,1.88c3.2,0.48,6.39,0.99,9.59,1.46c1.64,0.24,3.29,0.47,4.94,0.61
		c1.24,0.11,1.24,0.04,1.43-1.16c0.17-1.09,0.92-1.84,2.1-2.12c2.12-0.5,4.28-0.69,6.43-0.99c2.19-0.31,4.38-0.6,6.56-0.95
		c2.18-0.35,4.38-0.62,6.58-0.86c1.48-0.16,2.02,0.42,1.97,1.91c-0.04,1.46-0.43,2.86-0.6,4.3c-0.5,4.18-1.12,8.35-1.7,12.52
		c-0.03,0.25-0.07,0.51-0.15,0.75c-0.35,1.08-1.07,1.64-2.21,1.51c-1.56-0.19-3.1-0.53-4.65-0.8c-0.92-0.16-1.84-0.34-2.77-0.43
		c-0.74-0.07-0.95,0.22-0.75,0.9c0.95,3.27,1.77,6.58,2.92,9.77c0.69,1.92,1.38,3.84,1.98,5.78c0.74,2.38,1.57,4.75,2.08,7.2
		c0.52,2.5,1.18,4.96,1.98,7.39c0.96,2.95,1.79,5.95,2.69,8.92c0.3,1,0.32,1.01,1.33,0.88c4.4-0.55,8.74-0.33,13.03,0.9
		c4.48,1.29,8.34,3.59,11.59,6.92c1.01,1.03,0.94,1.69-0.35,2.41c-2.3,1.29-4.64,2.52-6.96,3.76c-3.75,2.01-7.51,4-11.24,6.04
		c-4.4,2.41-8.87,4.71-13.3,7.08c-4.99,2.67-9.97,5.36-14.96,8.04c-3.04,1.63-6.08,3.25-9.13,4.86c-1.27,0.67-2.02,0.26-2.15-1.21
		c-0.1-1.19-0.08-2.38,0.06-3.57c0.12-1.03-0.03-1.21-1.07-1.22c-3.07-0.02-6.13-0.02-9.2-0.03c-38.55,0-77.09-0.01-115.64-0.01
		c-0.47,0-0.94,0.02-1.4-0.02c-1.03-0.09-1.69-0.91-1.5-1.95c0.18-0.96,0.41-1.91,0.73-2.84c0.25-0.73,0.1-0.93-0.65-0.99
		c-0.34-0.03-0.68-0.01-1.02-0.01c-4.47,0-8.94,0-13.42,0c-0.55,0-1.11,0.01-1.66-0.02c-2.02-0.12-2.97-1.95-1.9-3.68
		c0.49-0.8,1.18-1.33,2.11-1.53c0.58-0.13,1.17-0.19,1.77-0.19c5.41,0.01,10.82,0,16.23,0.04c0.7,0,1.11-0.19,1.43-0.8
		c0.51-0.98,1.07-1.93,1.59-2.91c0.33-0.63,0.22-0.82-0.5-0.87c-0.42-0.03-0.85-0.01-1.28-0.01c-15.67,0-31.35,0-47.02,0
		c-0.47,0-0.94,0.03-1.4-0.04c-1.79-0.29-2.62-2.02-1.68-3.57c0.6-0.98,1.42-1.7,2.7-1.63c0.64,0.04,1.28,0.01,1.92,0.01
		c16.65,0,33.31-0.01,49.96,0.02c1.16,0,2-0.26,2.73-1.22c0.77-1.01,1.77-1.83,2.67-2.74C60.54,156.78,60.82,156.68,60.76,156.27z
		 M188.22,116.4c0.08-0.77,0.12-1.67,0.02-2.56c-0.19-1.78-0.43-3.54-0.55-5.33c-0.1-1.53-0.34-3.04-0.57-4.56
		c-0.16-1.06-0.26-1.11-1.28-1.22c-1.39-0.14-2.79-0.27-4.18-0.46c-3.12-0.42-6.26-0.62-9.4-0.88c-2.88-0.24-5.77-0.33-8.65-0.67
		c-2.58-0.31-4.33-1.58-5.34-3.94c-0.47-1.1-0.95-2.19-1.42-3.28c-0.51-1.17-1-2.35-1.54-3.51c-0.45-0.96-0.76-0.96-1.39-0.07
		c-0.07,0.1-0.13,0.22-0.2,0.32c-2.25,3.41-4.38,6.9-6.34,10.49c-1.67,3.06-3.23,6.19-4.5,9.44c-0.57,1.47-0.54,1.48,0.89,1.99
		c1.28,0.46,2.55,0.96,3.81,1.47c1.89,0.78,3.77,1.59,5.72,2.17c2.7,0.8,5.26,1.93,7.88,2.94c1.45,0.56,2.67,1.7,4.35,1.66
		c0.15,0,0.3,0.15,0.46,0.21c1.38,0.55,2.68,1.24,3.96,2.02c2.69,1.64,4.08,4,4.36,7.08c0.04,0.42,0.07,0.85,0.16,1.26
		c0.16,0.73,0.06,1.42-0.12,2.14c-0.28,1.14-1,2.06-1.42,3.13c-1.84,4.62-3.66,9.26-5.53,13.86c-2.31,5.68-4.66,11.33-7,17
		c-0.44,1.06-0.92,2.1-1.34,3.17c-0.26,0.68-0.14,0.84,0.61,0.82c0.72-0.03,1.44-0.13,2.16-0.22c5.06-0.58,9.66-2.28,13.63-5.55
		c3.15-2.59,5.46-5.81,7.33-9.39c2.77-5.32,5.15-14.58,5.2-21.76c0-0.17,0.06-0.34,0.05-0.51c-0.09-1.3,0.53-2.49,0.52-3.78
		c0-1.75-0.03-3.49,0.03-5.24C188.68,121.95,188.3,119.24,188.22,116.4z"/>
	<path class="st0" d="M44.13,109.28c1.79,0,3.58,0.04,5.37-0.01c1.27-0.04,2.54-0.28,3.82-0.19c0.85,0.06,1.68,0.26,2.54,0.2
		c1.11-0.07,1.22-0.14,1.43-1.21c0.14-0.71,0.27-1.42,0.38-2.14c0.17-1.14-0.02-1.38-1.16-1.39c-2.43-0.01-4.86,0-7.28,0
		c-0.43,0-0.85,0.01-1.28-0.01c-1.32-0.05-2.06-0.53-2.39-1.53c-0.31-0.95,0.07-2.17,0.91-2.88c0.67-0.57,1.44-0.85,2.34-0.84
		c2.73,0.03,5.45,0.01,8.18,0.01c0.34,0,0.68,0,1.02-0.02c0.54-0.03,0.85-0.29,0.94-0.85c0.35-2.23,0.71-4.45,1.07-6.67
		c0.2-1.26,0.41-2.52,0.63-3.78c0.68-3.94,1.37-7.88,2.05-11.82c0.14-0.8,0.18-1.6,0.4-2.39c0.69-2.49,2.64-4.05,5.21-4.11
		c1.02-0.02,2.04-0.02,3.07-0.02c14.01,0,28.02,0,42.04,0c0.34,0,0.68,0.02,1.02,0.03c2.45,0.05,3.93,2.21,3.54,4.47
		c-0.78,4.53-1.63,9.04-2.31,13.59c-0.59,3.96-1.43,7.87-1.95,11.84c-0.3,2.32-0.78,4.61-1.17,6.92c-0.52,3.06-1.04,6.12-1.56,9.18
		c-0.14,0.83-0.49,1.65-0.06,2.5c-0.61,1.87-0.48,4.02-2.64,5.23c-1.56,0.88-3.06,1.42-4.83,1.12c-0.25-0.04-0.54-0.08-0.76,0
		c-1.12,0.44-2.27,0.18-3.41,0.26c-0.38,0.03-0.77,0.05-1.13-0.12c-0.45-0.21-0.91-0.18-1.38-0.11c-0.08,0.01-0.17,0.03-0.25,0.04
		c-0.87,0.11-8.85-0.06-9.64-0.03c-1.39,0.05-2.78-0.15-4.18,0.13c-1.2,0.24-2.45,0.16-3.68-0.03c-0.13-0.02-0.25-0.1-0.37-0.09
		c-2.24,0.19-4.49-0.06-6.73,0.06c-1.43,0.07-2.84,0.46-4.28-0.07c-0.63-0.23-1.37-0.17-2.02,0.06c-1.35,0.49-2.7,0.18-4.04,0.04
		c-0.63-0.07-1.25-0.19-1.89-0.1c-1.32,0.19-2.63,0.17-3.95,0.02c-0.29-0.03-0.62-0.11-0.88-0.02c-1.6,0.54-3.18,0.31-4.77-0.02
		c-0.08-0.02-0.17-0.05-0.25-0.03c-1.6,0.34-3.21-0.18-4.82,0.14c-0.86,0.17-1.78,0.1-2.67,0.11c-1.87,0.03-3.75-0.07-5.62,0.08
		c-0.13,0.01-0.26,0.03-0.38,0.01c-3.89-0.51-7.8-0.28-11.7-0.31c-0.98-0.01-1.81-0.32-2.24-1.18c-0.46-0.93-0.34-1.92,0.33-2.76
		c0.7-0.89,1.62-1.33,2.77-1.32c2.43,0.01,4.86,0.01,7.28,0c0.98,0,1.96,0.08,2.89-0.33c0.22-0.1,0.5-0.08,0.75-0.06
		c3.19,0.31,6.38,0.15,9.57,0.06c0.21-0.01,0.45-0.05,0.63,0.03c1.02,0.48,2.12,0.4,3.14,0.25c1.36-0.2,2.71-0.14,4.06-0.2
		c1.4-0.07,1.41-0.07,1.62-1.41c0.09-0.55,0.28-1.06,0.48-1.58c0.43-1.17,0.05-1.72-1.13-1.44c-1.02,0.25-2.04,0.26-3.04,0.17
		c-4.59-0.42-9.19-0.11-13.78-0.22c-0.09,0-0.17,0-0.26,0c-0.97,0.04-1.8-0.27-2.23-1.18c-0.46-0.97-0.24-1.92,0.38-2.76
		c0.65-0.88,1.52-1.31,2.64-1.3C40.38,109.29,42.26,109.27,44.13,109.28C44.13,109.27,44.13,109.27,44.13,109.28z"/>
	<path class="st0" d="M233.92,178.26c0.17,6.11-1.96,11.06-5.09,15.63c-2.77,4.05-6.46,7.11-10.79,9.36
		c-2.68,1.4-5.5,2.48-8.57,2.77c-1.1,0.1-2.17,0.44-3.29,0.43c-5.27-0.08-10.08-1.5-14.14-4.98c-2.47-2.12-4.25-4.75-5.34-7.81
		c-0.67-1.89-1.19-3.82-1.22-5.85c-0.01-0.79,0.18-1.35,0.96-1.75c2.31-1.19,4.58-2.45,6.86-3.68c1.05-0.57,2.09-1.14,3.14-1.7
		c0.29-0.16,0.61-0.4,0.94-0.12c0.3,0.25,0.26,0.64,0.15,0.96c-0.37,1.02-0.44,2.07-0.42,3.14c0.08,5.29,3.77,9.25,8.62,10.05
		c3.28,0.54,6.26-0.26,9.04-1.9c3.81-2.25,6.39-5.56,7.31-9.88c0.97-4.56-0.32-8.99-4.85-11.62c-0.43-0.25-1.06-0.39-1.05-0.99
		c0.01-0.57,0.66-0.59,1.05-0.8c3.21-1.75,6.44-3.48,9.66-5.22c1-0.54,1.01-0.54,1.83,0.29c2.23,2.27,3.64,5,4.55,8.02
		C233.86,174.59,233.98,176.62,233.92,178.26z"/>
	<path class="st0" d="M166.06,29.51c7.51-0.32,15.23,4.91,17.89,12.42c0.42,1.17,0.67,2.37,0.97,3.57c0.06,0.24,0.09,0.51,0.08,0.76
		c-0.04,0.76-0.35,1.01-1.07,0.79c-1.01-0.32-2-0.71-3.01-1.07c-3.53-1.25-7.05-2.51-10.58-3.76c-0.28-0.1-0.56-0.21-0.85-0.26
		c-0.85-0.15-1.28,0.09-1.6,0.89c-0.12,0.31-0.19,0.65-0.25,0.99c-0.31,1.72-0.6,3.44-0.9,5.16c-0.55,3.26,0.28,5.98,3.09,7.94
		c2.37,1.66,4.73,3.34,7.09,5.01c1.56,1.1,1.59,1.27,0.06,2.42c-1.33,1.01-2.83,1.73-4.39,2.31c-0.73,0.26-1.41,0.18-2.09-0.17
		c-5.51-2.87-11.03-5.73-16.55-8.59c-1.78-0.92-3.53-1.89-5.32-2.77c-0.76-0.37-1.23-0.88-1.37-1.7c-0.3-1.75-0.74-3.48-0.63-5.3
		c0.21-3.51,1.11-6.8,3.01-9.77c3.19-5,7.82-7.81,13.62-8.8c0.13-0.02,0.25-0.04,0.38-0.04C164.45,29.51,165.26,29.51,166.06,29.51z
		"/>
	<path class="st0" d="M61.04,184.18c1.4,0,2.81,0,4.21,0c1.35,0,1.61,0.19,1.71,1.47c0.41,5.33,4.47,8.97,9.97,9.22
		c3.51,0.15,6.57-1.1,9.31-3.24c2.16-1.69,3.8-3.77,4.83-6.31c0.33-0.82,0.8-1.18,1.72-1.17c2.89,0.05,5.79,0.02,8.68,0.02
		c0.17,0,0.34-0.01,0.51,0.02c0.76,0.1,0.98,0.35,0.79,1.12c-0.22,0.86-0.51,1.71-0.84,2.54c-1.91,4.82-5.03,8.77-8.97,12.07
		c-1.85,1.56-3.9,2.88-6.15,3.83c-1.57,0.66-3.11,1.35-4.77,1.78c-3.77,0.95-7.52,1.29-11.35,0.36
		c-7.27-1.76-12.26-5.99-14.57-13.21c-0.72-2.25-1.04-4.55-0.98-6.91c0.03-1.37,0.21-1.56,1.55-1.57c1.45-0.01,2.89,0,4.34,0
		C61.04,184.18,61.04,184.18,61.04,184.18z"/>
</g>
</svg>
