<?xml version="1.0" encoding="utf-8"?>
<!-- Generator: Adobe Illustrator 24.0.0, SVG Export Plug-In . SVG Version: 6.00 Build 0)  -->
<svg version="1.1" id="Layer_1" xmlns="http://www.w3.org/2000/svg" xmlns:xlink="http://www.w3.org/1999/xlink" x="0px" y="0px"
	 viewBox="0 0 235.95 235.95" style="enable-background:new 0 0 235.95 235.95;" xml:space="preserve">
<style type="text/css">
	.st0{fill:#969696;}
</style>
<g>
	<g>
		<path class="st0" d="M117.97,0C52.92,0,0,52.92,0,117.97s52.92,117.97,117.97,117.97s117.97-52.92,117.97-117.97
			S183.03,0,117.97,0z M117.97,230C56.2,230,5.95,179.75,5.95,117.97S56.2,5.95,117.97,5.95S230,56.2,230,117.97
			S179.75,230,117.97,230z"/>
	</g>
	<g>
		<path class="st0" d="M87.97,191.46c-4.41-0.87-8.49-2.49-12.07-5.29c-8.05-6.3-11.48-16.82-8.72-26.93
			c2.63-9.62,11.19-16.93,21.17-18.22c4.84-0.63,9.44,0.11,13.81,2.17c1.04,0.49,1.42,0.29,1.85-0.71c1.95-4.53,3.96-9.03,6-13.52
			c0.4-0.87,0.24-1.59-0.1-2.39c-6.21-14.88-12.41-29.76-18.61-44.64c-2.65-6.37-5.34-12.73-7.95-19.12
			c-3.17-7.77-0.76-15.53,6.21-20.24c0.86-0.58,1.72-1.15,2.59-1.72c2.74-1.79,4.71-1.22,6.02,1.73c2.28,5.14,4.55,10.28,6.82,15.42
			c5.82,13.17,11.64,26.33,17.47,39.49c0.17,0.38,0.21,1.03,0.73,0.98c0.54-0.05,0.59-0.73,0.78-1.16
			c8.04-18.17,16.07-36.34,24.1-54.51c0.24-0.54,0.48-1.09,0.82-1.57c0.91-1.3,2.55-1.9,3.91-1.14c3.45,1.92,6.85,3.96,9,7.47
			c2.97,4.84,3.39,9.91,1.23,15.14c-4.62,11.16-9.28,22.3-13.93,33.45c-4.23,10.15-8.45,20.3-12.69,30.44
			c-0.31,0.75-0.49,1.43-0.11,2.26c2.05,4.54,4.09,9.08,6.05,13.66c0.47,1.1,0.93,1.05,1.88,0.62c14.84-6.82,32.03,1.85,35.4,17.81
			c2.94,13.91-6.21,27.57-20.25,30.25c-0.34,0.06-0.67,0.16-1,0.24c-2.47,0-4.93,0-7.4,0c-0.14-0.06-0.27-0.14-0.41-0.17
			c-12.23-2.2-21.14-13.4-21.31-26.46c-0.08-6.22-1.77-12.06-4.98-17.42c-1.04-1.74-1.21-1.73-2.25,0
			c-3.48,5.82-4.92,12.16-5.03,18.9c-0.13,8.3-3.54,15.03-10.09,20.15c-3.42,2.67-7.38,4.09-11.56,4.99
			C92.9,191.46,90.43,191.46,87.97,191.46z M167.19,166.14c-0.02-6.73-5.58-12.34-12.33-12.42c-6.79-0.09-12.51,5.58-12.61,12.49
			c-0.1,6.68,5.66,12.44,12.45,12.45C161.6,178.66,167.2,173.05,167.19,166.14z M91.7,178.65c6.73-0.02,12.34-5.61,12.41-12.34
			c0.07-6.8-5.61-12.52-12.5-12.59c-6.75-0.08-12.47,5.73-12.43,12.61C79.22,173.13,84.85,178.67,91.7,178.65z M123.22,122.26
			c-3.42-0.01-6.15,2.64-6.17,6c-0.02,3.41,2.81,6.29,6.16,6.26c3.32-0.03,6.08-2.83,6.1-6.17
			C129.32,124.97,126.62,122.27,123.22,122.26z"/>
	</g>
</g>
</svg>
