<?xml version="1.0" encoding="utf-8"?>
<!-- Generator: Adobe Illustrator 24.0.0, SVG Export Plug-In . SVG Version: 6.00 Build 0)  -->
<svg version="1.1" id="Layer_1" xmlns="http://www.w3.org/2000/svg" xmlns:xlink="http://www.w3.org/1999/xlink" x="0px" y="0px"
	 viewBox="0 0 235.95 235.95" style="enable-background:new 0 0 235.95 235.95;" xml:space="preserve">
<style type="text/css">
	.st0{fill:#969696;}
</style>
<g>
	<g>
		<path class="st0" d="M117.97,235.95C52.92,235.95,0,183.02,0,117.97S52.92,0,117.97,0s117.97,52.92,117.97,117.97
			S183.03,235.95,117.97,235.95z M117.97,5.95C56.2,5.95,5.95,56.2,5.95,117.97S56.2,230,117.97,230S230,179.75,230,117.97
			S179.75,5.95,117.97,5.95z"/>
	</g>
	<g>
		<path class="st0" d="M176.17,78.4c-4.42-13.12-18.63-20.17-31.75-15.76c-0.66,0.22-1.29,0.47-1.92,0.74
			c0.03-0.68,0.05-1.36,0.03-2.05c-0.41-13.84-11.95-24.72-25.79-24.32c-13.32,0.39-23.89,11.1-24.31,24.24
			c-12.56-3.87-26.12,2.65-30.82,15.12c-4.88,12.95,1.67,27.41,14.62,32.29c0.65,0.24,1.3,0.45,1.95,0.64
			c-0.46,0.5-0.9,1.02-1.32,1.57c-8.44,10.97-6.38,26.71,4.59,35.14c10.97,8.44,26.71,6.38,35.15-4.59
			c0.42-0.55,0.81-1.11,1.18-1.68c0.35,0.58,0.72,1.16,1.12,1.72c8.04,11.27,23.7,13.88,34.96,5.83
			c11.27-8.04,13.88-23.7,5.83-34.96c-0.4-0.56-0.83-1.1-1.27-1.62c0.66-0.16,1.32-0.35,1.97-0.57
			C173.53,105.73,180.58,91.52,176.17,78.4z M124.53,114.69c-9.27,3.12-19.32-1.87-22.44-11.14c-3.12-9.27,1.87-19.32,11.14-22.44
			c9.27-3.12,19.32,1.87,22.44,11.14C138.79,101.52,133.8,111.57,124.53,114.69z"/>
		<path class="st0" d="M35.47,178.97h167c0,0-25,42-85,42S35.47,178.97,35.47,178.97z"/>
		<polygon class="st0" points="117.47,146.97 110.47,152.97 110.47,175.97 124.47,175.97 124.47,152.97 		"/>
	</g>
</g>
</svg>
