<?xml version="1.0" encoding="utf-8"?>
<!-- Generator: Adobe Illustrator 24.0.0, SVG Export Plug-In . SVG Version: 6.00 Build 0)  -->
<svg version="1.1" id="Layer_1" xmlns="http://www.w3.org/2000/svg" xmlns:xlink="http://www.w3.org/1999/xlink" x="0px" y="0px"
	 viewBox="0 0 235.95 235.95" style="enable-background:new 0 0 235.95 235.95;" xml:space="preserve">
<style type="text/css">
	.st0{fill:#969696;}
</style>
<g>
	<g>
		<path class="st0" d="M117.97,235.95C52.92,235.95,0,183.03,0,117.97S52.92,0,117.97,0s117.97,52.92,117.97,117.97
			S183.03,235.95,117.97,235.95z M117.97,5.95C56.2,5.95,5.95,56.2,5.95,117.97S56.2,230,117.97,230S230,179.75,230,117.97
			S179.75,5.95,117.97,5.95z"/>
	</g>
	<path class="st0" d="M189.97,142.97h-3.5v-23.65c0-2.78-1.12-5.45-3.08-7.42l-21.85-21.85c-1.97-1.97-4.64-3.08-7.42-3.08h-9.65
		v-10.5c0-5.8-4.7-10.5-10.5-10.5h-56c-5.8,0-10.5,4.7-10.5,10.5v10.5H55.22c-0.96,0-1.75,0.79-1.75,1.75v3.5
		c0,0.96,0.79,1.75,1.75,1.75h59.5c0.96,0,1.75,0.79,1.75,1.75v3.5c0,0.96-0.79,1.75-1.75,1.75h-52.5c-0.96,0-1.75,0.79-1.75,1.75
		v3.5c0,0.96,0.79,1.75,1.75,1.75h45.5c0.96,0,1.75,0.79,1.75,1.75v3.5c0,0.96-0.79,1.75-1.75,1.75h-52.5
		c-0.96,0-1.75,0.79-1.75,1.75v3.5c0,0.96,0.79,1.75,1.75,1.75h45.5c0.96,0,1.75,0.79,1.75,1.75v3.5c0,0.96-0.79,1.75-1.75,1.75
		H67.47v28c0,11.59,9.41,21,21,21s21-9.41,21-21h28c0,11.59,9.41,21,21,21s21-9.41,21-21h10.5c1.93,0,3.5-1.57,3.5-3.5v-7
		C193.47,144.55,191.9,142.97,189.97,142.97z M88.47,167.47c-5.8,0-10.5-4.7-10.5-10.5s4.7-10.5,10.5-10.5s10.5,4.7,10.5,10.5
		S94.27,167.47,88.47,167.47z M158.47,167.47c-5.8,0-10.5-4.7-10.5-10.5s4.7-10.5,10.5-10.5s10.5,4.7,10.5,10.5
		S164.27,167.47,158.47,167.47z M175.97,121.97h-31.5v-24.5h9.65l21.85,21.85V121.97z"/>
</g>
</svg>
