<?xml version="1.0" encoding="utf-8"?>
<!-- Generator: Adobe Illustrator 24.0.0, SVG Export Plug-In . SVG Version: 6.00 Build 0)  -->
<svg version="1.1" id="Layer_1" xmlns="http://www.w3.org/2000/svg" xmlns:xlink="http://www.w3.org/1999/xlink" x="0px" y="0px"
	 viewBox="0 0 235.95 235.95" style="enable-background:new 0 0 235.95 235.95;" xml:space="preserve">
<style type="text/css">
	.st0{fill:#969696;}
</style>
<g>
	<circle class="st0" cx="117.97" cy="83.58" r="47.61"/>
	<g>
		<path class="st0" d="M117.97,0C52.92,0,0,52.92,0,117.97s52.92,117.97,117.97,117.97s117.97-52.92,117.97-117.97
			S183.03,0,117.97,0z M117.97,5.95C179.75,5.95,230,56.2,230,117.97c0,45.09-26.78,84.04-65.27,101.79
			c-0.31,0.14-0.61,0.28-0.92,0.42c-0.46,0.21-0.92,0.41-1.38,0.61c-0.46,0.2-0.92,0.4-1.39,0.59c-0.37,0.15-0.73,0.3-1.1,0.45
			c-0.59,0.24-1.17,0.47-1.76,0.7c-0.27,0.11-0.55,0.21-0.82,0.31c-0.73,0.27-1.46,0.54-2.19,0.8c-0.15,0.05-0.31,0.11-0.46,0.16
			c-11.51,3.99-23.86,6.17-36.73,6.17s-25.23-2.17-36.73-6.17c-0.15-0.05-0.31-0.11-0.46-0.16c-0.73-0.26-1.46-0.53-2.19-0.8
			c-0.27-0.1-0.55-0.21-0.82-0.31c-0.59-0.23-1.18-0.46-1.76-0.7c-0.37-0.15-0.74-0.3-1.1-0.45c-0.46-0.19-0.92-0.39-1.38-0.59
			c-0.46-0.2-0.93-0.4-1.38-0.61c-0.31-0.14-0.61-0.28-0.92-0.42c-38.49-17.75-65.27-56.7-65.27-101.79
			C5.95,56.2,56.2,5.95,117.97,5.95z"/>
		<path class="st0" d="M117.97,222.97c34.75,0,65.61-16.98,84.73-43.06l-1.28-11.27c0,0-4.28-20.33-23.54-24.07h-35.31l-24.61,58.31
			l-24.61-58.31H58.06c-19.26,3.74-23.54,24.07-23.54,24.07l-1.28,11.27C52.36,206,83.22,222.97,117.97,222.97z"/>
	</g>
</g>
</svg>
